<?xml version="1.0" encoding="iso-8859-1"?>
<!-- Uploaded to: SVG Repo, www.svgrepo.com, Generator: SVG Repo Mixer Tools -->
<svg height="800px" width="800px" version="1.1" id="Layer_1" xmlns="http://www.w3.org/2000/svg" xmlns:xlink="http://www.w3.org/1999/xlink" 
	 viewBox="0 0 512 512" xml:space="preserve">
<polygon style="fill:#FAEE1C;" points="256,136.347 256,47.304 411.826,91.826 "/>
<path style="fill:#315C7C;" d="M367.304,292.173c0,61.473-49.831,111.304-111.304,111.304s-111.304-49.831-111.304-111.304
	c0-15.827,3.306-30.887,9.272-44.522c17.163-39.313,56.387-66.783,102.033-66.783s84.87,27.47,102.033,66.783
	C363.999,261.286,367.304,276.346,367.304,292.173z"/>
<path style="fill:#28CC9E;" d="M358.033,247.652H153.967c17.163-39.313,56.387-66.783,102.033-66.783
	S340.87,208.339,358.033,247.652z"/>
<path d="M299.479,243.389c-0.278-0.669-0.623-1.313-1.024-1.914c-0.401-0.613-0.868-1.181-1.38-1.693s-1.08-0.979-1.692-1.391
	c-0.601-0.401-1.247-0.746-1.914-1.024c-0.679-0.278-1.38-0.49-2.081-0.634c-1.447-0.289-2.916-0.289-4.352,0
	c-0.712,0.145-1.414,0.356-2.093,0.634c-0.668,0.278-1.313,0.623-1.914,1.024c-0.612,0.412-1.18,0.879-1.692,1.391
	c-0.512,0.512-0.979,1.08-1.38,1.693c-0.401,0.601-0.746,1.245-1.024,1.914c-0.278,0.678-0.501,1.38-0.634,2.081
	c-0.145,0.722-0.223,1.458-0.223,2.182c0,0.722,0.078,1.458,0.223,2.17c0.134,0.712,0.356,1.414,0.634,2.08
	c0.278,0.679,0.623,1.325,1.024,1.926c0.401,0.612,0.868,1.18,1.38,1.692c2.07,2.07,4.942,3.262,7.869,3.262
	s5.799-1.191,7.869-3.262c0.512-0.512,0.979-1.08,1.38-1.692c0.401-0.601,0.746-1.247,1.024-1.926
	c0.278-0.668,0.501-1.368,0.634-2.08c0.145-0.713,0.223-1.448,0.223-2.17c0-0.723-0.078-1.459-0.223-2.182
	C299.98,244.769,299.757,244.066,299.479,243.389z"/>
<path d="M478.609,409.043c-6.147,0-11.13,4.984-11.13,11.13c0,18.412-14.979,33.391-33.391,33.391s-33.391-14.979-33.391-33.391
	c0-6.146-4.983-11.13-11.13-11.13c-6.147,0-11.13,4.984-11.13,11.13c0,18.412-14.979,33.391-33.391,33.391
	s-33.391-14.979-33.391-33.391c0-6.146-4.983-11.13-11.13-11.13s-11.13,4.984-11.13,11.13c0,18.412-14.979,33.391-33.391,33.391
	s-33.391-14.979-33.391-33.391c0-6.146-4.983-11.13-11.13-11.13c-6.147,0-11.13,4.984-11.13,11.13
	c0,18.412-14.979,33.391-33.391,33.391s-33.391-14.979-33.391-33.391c0-6.146-4.983-11.13-11.13-11.13
	c-6.147,0-11.13,4.984-11.13,11.13c0,18.412-14.979,33.391-33.391,33.391s-33.391-14.979-33.391-33.391
	c0-6.146-4.983-11.13-11.13-11.13s-11.13,4.984-11.13,11.13c0,30.687,24.966,55.652,55.652,55.652c18.186,0,34.36-8.769,44.522-22.3
	c10.162,13.53,26.336,22.3,44.522,22.3s34.36-8.769,44.522-22.3c10.162,13.53,26.336,22.3,44.522,22.3s34.36-8.769,44.522-22.3
	c10.162,13.53,26.336,22.3,44.522,22.3s34.36-8.769,44.522-22.3c10.162,13.53,26.336,22.3,44.522,22.3
	c30.687,0,55.652-24.966,55.652-55.652C489.739,414.027,484.756,409.043,478.609,409.043z"/>
<path d="M500.87,303.304c-6.147,0-11.13,4.984-11.13,11.13c0,18.412-14.979,33.391-33.391,33.391s-33.391-14.979-33.391-33.391
	c0-6.146-4.983-11.13-11.13-11.13c-6.147,0-11.13,4.984-11.13,11.13c0,18.412-14.979,33.391-33.391,33.391
	c-0.747,0-1.487-0.031-2.225-0.079c8.536-16.687,13.355-35.578,13.355-55.573c0-17.164-3.556-33.512-9.962-48.353
	c-0.169-0.46-0.361-0.907-0.585-1.336c-17.653-39.597-55.725-68.157-100.757-72.234v-25.508l147.753-42.216
	c4.778-1.365,8.073-5.732,8.073-10.702s-3.295-9.337-8.073-10.702L259.058,36.602c-0.071-0.02-0.144-0.029-0.215-0.048
	c-0.293-0.077-0.588-0.145-0.888-0.198c-0.135-0.023-0.269-0.043-0.405-0.062c-0.26-0.037-0.523-0.063-0.789-0.081
	c-0.156-0.011-0.311-0.02-0.466-0.023c-0.099-0.002-0.195-0.014-0.294-0.014c-0.161,0-0.317,0.018-0.476,0.023
	c-0.148,0.007-0.295,0.01-0.442,0.022c-0.299,0.024-0.593,0.066-0.885,0.112c-0.099,0.017-0.198,0.027-0.296,0.046
	c-0.815,0.156-1.598,0.398-2.34,0.721c-0.058,0.024-0.114,0.057-0.171,0.082c-0.305,0.139-0.603,0.289-0.893,0.455
	c-0.106,0.06-0.208,0.126-0.313,0.19c-0.24,0.147-0.474,0.303-0.701,0.467c-0.06,0.043-0.126,0.078-0.185,0.124
	c-0.051,0.039-0.096,0.085-0.147,0.125c-0.219,0.171-0.429,0.352-0.634,0.539c-0.095,0.087-0.193,0.169-0.284,0.258
	c-0.26,0.254-0.509,0.52-0.744,0.798c-0.021,0.024-0.046,0.048-0.066,0.072c-0.255,0.308-0.491,0.633-0.712,0.968
	c-0.053,0.081-0.1,0.166-0.151,0.249c-0.161,0.258-0.315,0.523-0.455,0.795c-0.053,0.105-0.102,0.21-0.152,0.316
	c-0.124,0.26-0.238,0.526-0.342,0.798c-0.043,0.112-0.085,0.225-0.124,0.338c-0.095,0.275-0.176,0.553-0.249,0.836
	c-0.03,0.115-0.062,0.228-0.088,0.343c-0.067,0.295-0.116,0.595-0.159,0.899c-0.014,0.106-0.037,0.209-0.048,0.317
	c-0.046,0.405-0.073,0.816-0.073,1.233v89.043v33.902c-45.038,4.078-83.112,32.644-100.763,72.247
	c-0.221,0.423-0.411,0.864-0.577,1.317c-6.408,14.845-9.965,31.194-9.965,48.361c0,19.995,4.819,38.886,13.355,55.573
	c-0.738,0.048-1.478,0.079-2.225,0.079c-18.412,0-33.391-14.979-33.391-33.391c0-6.146-4.983-11.13-11.13-11.13
	c-6.147,0-11.13,4.984-11.13,11.13c0,18.412-14.979,33.391-33.391,33.391s-33.391-14.979-33.391-33.391
	c0-6.146-4.983-11.13-11.13-11.13S0,308.288,0,314.434c0,30.687,24.966,55.652,55.652,55.652c18.186,0,34.36-8.769,44.522-22.3
	c10.162,13.53,26.336,22.3,44.522,22.3c5.218,0,10.312-0.708,15.228-2.107c22.442,28.383,57.167,46.629,96.077,46.629
	s73.635-18.246,96.077-46.629c4.916,1.399,10.01,2.107,15.228,2.107c18.186,0,34.36-8.769,44.522-22.3
	c10.162,13.53,26.336,22.3,44.522,22.3c30.687,0,55.652-24.966,55.652-55.652C512,308.288,507.017,303.304,500.87,303.304z
	 M267.13,121.592V62.059l104.181,29.766L267.13,121.592z M256,392.347c-55.236,0-100.174-44.938-100.174-100.174
	c0-11.705,2.025-22.942,5.73-33.392H256c6.147,0,11.13-4.984,11.13-11.13c0-6.146-4.983-11.13-11.13-11.13h-83.25
	c17.992-26.827,48.592-44.521,83.25-44.521s65.258,17.694,83.25,44.521h-16.838c-6.147,0-11.13,4.984-11.13,11.13
	c0,6.146,4.983,11.13,11.13,11.13h28.032c3.705,10.45,5.73,21.688,5.73,33.392C356.174,347.409,311.236,392.347,256,392.347z"/>
</svg>